<svg width="32" height="28" viewBox="0 0 32 28" fill="none" xmlns="http://www.w3.org/2000/svg">
<path d="M11.325 27.308C9.94291 27.0367 8.94787 25.6138 9.17627 24.2355C9.36335 23.1055 10.2425 22.1761 11.325 21.9635C11.531 21.9231 11.3949 21.9095 10.7334 21.9046C9.72181 21.897 9.3544 21.8365 8.83774 21.595C7.80642 21.1124 7.14418 19.8355 7.35031 18.727C7.49923 17.9255 8.06245 17.1132 8.6914 16.7924C8.83124 16.7209 8.94538 16.6495 8.94538 16.6332C8.94538 16.6068 5.76768 2.27805 5.69031 1.95592L5.65629 1.81906H3.21245C0.869141 1.81906 0.757887 1.81527 0.50961 1.69357C0.235972 1.56129 0 1.19633 0 0.906247C0 0.614467 0.236202 0.251347 0.513128 0.11725C0.769758 -0.00671889 0.840453 -0.00935893 3.7299 0.00727099C6.60522 0.0223891 6.68865 0.0261278 6.85215 0.149718C7.17946 0.394254 7.23833 0.551026 7.58775 2.10955L7.93204 3.64458H19.1799C30.2439 3.64458 30.4316 3.64693 30.6623 3.76402C30.906 3.88836 31.153 4.28105 31.153 4.54436C31.153 4.78436 27.4442 17.6666 27.3316 17.8176C27.2707 17.8989 27.1452 18.0225 27.053 18.0913C26.8856 18.2164 26.852 18.2171 18.3255 18.2473C8.69401 18.2814 9.50226 18.236 9.24264 18.7461C9.00794 19.2064 9.18557 19.7597 9.637 19.974C9.82598 20.0635 10.6244 20.0726 18.2895 20.0726C26.6916 20.0726 26.7351 20.0733 26.9928 20.1981C27.266 20.3303 27.5024 20.6954 27.5024 20.9854C27.5024 21.2757 27.2661 21.6404 26.9928 21.7728C26.772 21.8797 26.6089 21.899 25.886 21.9047C25.231 21.9084 25.0989 21.9236 25.3054 21.9637C26.6874 22.235 27.6824 23.6578 27.4541 25.0361C27.2564 26.2297 26.3582 27.1278 25.1646 27.3256C23.7204 27.5648 22.322 26.5287 22.0746 25.0361C21.846 23.6578 22.8413 22.2351 24.2233 21.9637C24.3802 21.9334 21.9414 21.9111 18.3147 21.9111C14.688 21.9111 12.2492 21.9338 12.4061 21.9637C13.7881 22.235 14.7832 23.6578 14.5548 25.0361C14.2978 26.5864 12.8475 27.6071 11.325 27.308ZM12.3983 25.3768C12.6542 25.1946 12.7995 24.8624 12.7634 24.5415C12.706 24.03 12.2757 23.6817 11.7718 23.7385C10.5994 23.8704 10.7587 25.6251 11.9344 25.5298C12.0923 25.5185 12.2956 25.4501 12.3983 25.3768ZM25.2976 25.3768C25.5535 25.1946 25.6987 24.8624 25.6627 24.5415C25.6049 24.03 25.175 23.6817 24.6711 23.7385C23.4986 23.8704 23.6579 25.6251 24.8336 25.5298C24.9916 25.5185 25.1949 25.4501 25.2976 25.3768ZM27.4363 11.052C28.2792 8.09873 28.9832 5.63447 29.0007 5.57593C29.031 5.47501 28.5114 5.46935 18.6836 5.46935H8.33464L8.36867 5.60615C8.38757 5.68136 8.92057 8.0841 9.55508 10.9454C10.1896 13.8066 10.7235 16.2093 10.7415 16.2846L10.7755 16.4214H18.3409H25.9062L27.4363 11.052Z" fill="black"/>
</svg>
